<svg id="Capa_1" data-name="Capa 1" xmlns="http://www.w3.org/2000/svg" viewBox="0 0 2390.77 1882.24"><defs><style>.cls-1{fill:#2bbcee;}.cls-2{fill:#61c6ed;}.cls-3{fill:#8ad1f0;}</style></defs><rect class="cls-1" width="2390.77" height="1882.24"/><polygon class="cls-2" points="2390.77 1448.78 2390.77 433.46 2373.52 433.46 2373.52 515.57 2341.33 515.57 2341.33 433.46 2289.33 433.46 2289.33 487.26 2205.14 487.26 2205.14 569.37 2130.86 569.37 2130.86 433.46 2071.43 433.46 2071.43 512.75 1989.72 512.75 1989.72 433.46 1932.77 433.46 1932.77 507.08 1863.44 507.08 1863.44 433.46 1781.73 433.46 1781.73 467.44 1667.83 467.44 1667.83 433.46 1598.5 433.46 1598.5 532.57 1531.64 532.57 1531.64 433.46 1479.64 433.46 1479.64 487.26 1383.08 487.26 1383.08 552.38 1291.46 552.38 1291.46 461.78 1229.56 461.78 1229.56 509.91 1175.08 509.91 1175.08 453.29 1098.32 453.29 1098.32 521.24 984.42 521.24 984.42 433.46 892.81 433.46 892.81 475.94 816.05 475.94 816.05 433.46 746.72 433.46 746.72 473.11 642.72 473.11 642.72 543.88 575.86 543.88 575.86 433.46 516.44 433.46 516.44 492.93 432.25 492.93 432.25 433.46 390.16 433.46 390.16 470.28 261.4 470.28 261.4 560.88 201.97 560.88 201.97 433.46 112.83 433.46 112.83 484.43 0 484.43 0 1448.78 2390.77 1448.78"/><polygon class="cls-3" points="2390.77 1882.24 2390.77 866.94 2373.52 866.94 2373.52 949.04 2341.33 949.04 2341.33 866.94 2289.33 866.94 2289.33 920.73 2205.14 920.73 2205.14 1002.83 2130.86 1002.83 2130.86 866.94 2071.43 866.94 2071.43 946.21 1989.72 946.21 1989.72 866.94 1932.77 866.94 1932.77 940.54 1863.44 940.54 1863.44 866.94 1781.73 866.94 1781.73 900.91 1667.83 900.91 1667.83 866.94 1598.5 866.94 1598.5 966.03 1531.64 966.03 1531.64 866.94 1479.64 866.94 1479.64 920.73 1383.08 920.73 1383.08 985.85 1291.46 985.85 1291.46 895.25 1229.56 895.25 1229.56 943.38 1175.08 943.38 1175.08 886.76 1098.32 886.76 1098.32 954.7 984.42 954.7 984.42 866.94 892.81 866.94 892.81 909.4 816.05 909.4 816.05 866.94 746.72 866.94 746.72 906.58 642.72 906.58 642.72 977.36 575.86 977.36 575.86 866.94 516.44 866.94 516.44 926.39 432.25 926.39 432.25 866.94 390.16 866.94 390.16 903.74 261.4 903.74 261.4 994.34 201.97 994.34 201.97 866.94 112.83 866.94 112.83 917.9 0 917.9 0 1882.24 2390.77 1882.24"/></svg>