<svg xmlns="http://www.w3.org/2000/svg" viewBox="0 0 2390.76 448.5"><defs><style>.cls-1{fill:#a3c254;}.cls-2{fill:#8ba748;}.cls-3{fill:#7f4d2e;}.cls-4{fill:#945835;}.cls-5{fill:#a37458;}</style></defs><g id="Layer_2" data-name="Layer 2"><g id="Capa_1" data-name="Capa 1"><rect class="cls-1" x="1699.43" width="691.34" height="208.24"/><polygon class="cls-2" points="2390.76 35.62 2338.53 35.62 2338.53 78.35 2233.57 78.35 2233.57 107.71 2081.21 107.71 2081.21 182.47 2013.49 182.47 2013.49 78.35 1925.45 78.35 1925.45 115.72 1810.34 115.72 1810.34 169.12 1699.43 169.12 1699.43 208.24 2390.76 208.24 2390.76 35.62"/><rect class="cls-3" x="1699.43" y="208.24" width="691.34" height="240.27"/><polygon class="cls-4" points="2390.76 393.38 2390.76 278.58 2375.78 278.58 2375.78 318.63 2291.13 318.63 2291.13 273.23 2213.26 273.23 2213.26 235.86 2182.78 235.86 2182.78 265.22 2155.7 265.22 2155.7 307.95 2098.13 307.95 2098.13 265.22 2023.64 265.22 2023.64 318.63 1966.08 318.63 1966.08 249.21 1857.73 249.21 1857.73 278.58 1766.32 278.58 1766.32 326.63 1699.43 326.63 1699.43 374.69 1779.86 374.69 1779.86 448.5 1823.88 448.5 1823.88 350.66 1888.21 350.66 1888.21 398.72 1935.61 398.72 1935.61 366.68 2040.58 366.68 2040.58 409.4 2091.36 409.4 2091.36 369.35 2189.56 369.35 2189.56 417.41 2264.05 417.41 2264.05 382.69 2328.38 382.69 2328.38 393.38 2390.76 393.38"/><rect class="cls-3" x="2181.09" y="311.01" width="44.87" height="34.71"/><rect class="cls-3" x="2281.82" y="338.15" width="44.87" height="34.71"/><rect class="cls-3" x="2091.36" y="345.73" width="44.87" height="34.7"/><rect class="cls-3" x="1935.61" y="348.22" width="44.86" height="34.71"/><rect class="cls-3" x="1856.61" y="276.31" width="44.87" height="34.7"/><rect class="cls-3" x="1739.23" y="325.7" width="44.87" height="34.71"/><rect class="cls-3" x="2165.85" y="176.2" width="54.17" height="34.7"/><rect class="cls-3" x="1905.14" y="190.88" width="54.17" height="34.7"/><rect class="cls-2" x="2111.68" y="193.55" width="54.17" height="34.7"/><rect class="cls-2" x="2272.51" y="191.81" width="54.17" height="34.7"/><rect class="cls-2" x="1998.25" y="200.89" width="54.17" height="34.7"/><rect class="cls-2" x="1786.63" y="190.88" width="54.17" height="34.7"/><rect class="cls-1" width="1741.96" height="208.24"/><polygon class="cls-2" points="1692.12 54.32 1692.12 86.35 1658.26 86.35 1658.26 118.39 1580.39 118.39 1580.39 145.09 1505.89 145.09 1505.89 99.7 1472.04 99.7 1472.04 86.35 1404.32 86.35 1404.32 70.34 1343.37 70.34 1343.37 110.38 1312.9 110.38 1312.9 169.12 1279.04 169.12 1279.04 110.38 1224.87 110.38 1224.87 56.99 1187.62 56.99 1187.62 131.74 1065.73 131.74 1065.73 59.66 953.99 59.66 953.99 113.05 893.05 113.05 893.05 139.75 815.17 139.75 815.17 105.04 788.08 105.04 788.08 121.06 710.21 121.06 710.21 35.62 639.1 35.62 639.1 78.35 534.14 78.35 534.14 107.71 381.77 107.71 381.77 182.47 314.06 182.47 314.06 78.35 226.02 78.35 226.02 115.72 110.9 115.72 110.9 169.12 0 169.12 0 208.24 1741.96 208.24 1741.96 54.32 1692.12 54.32"/><rect class="cls-3" y="208.24" width="1741.96" height="240.27"/><polygon class="cls-4" points="1685.35 331.97 1741.96 331.97 1741.96 307.95 1705.67 307.95 1705.67 233.19 1610.86 233.19 1610.86 275.91 1505.89 275.91 1505.89 208.24 1468.65 208.24 1468.65 265.22 1421.25 265.22 1421.25 286.59 1360.3 286.59 1360.3 265.22 1268.88 265.22 1268.88 297.27 1180.85 297.27 1180.85 208.24 1163.92 208.24 1163.92 259.88 1058.96 259.88 1058.96 315.95 930.29 315.95 930.29 273.23 845.64 273.23 845.64 249.21 818.56 249.21 818.56 331.97 723.75 331.97 723.75 278.58 676.35 278.58 676.35 318.63 591.7 318.63 591.7 273.23 513.83 273.23 513.83 235.86 483.35 235.86 483.35 265.22 456.27 265.22 456.27 307.95 398.7 307.95 398.7 265.22 324.21 265.22 324.21 318.63 266.65 318.63 266.65 249.21 158.3 249.21 158.3 278.58 66.88 278.58 66.88 326.63 0 326.63 0 374.69 80.43 374.69 80.43 448.5 124.44 448.5 124.44 350.66 188.78 350.66 188.78 398.72 236.18 398.72 236.18 366.68 341.14 366.68 341.14 409.4 391.93 409.4 391.93 369.35 490.12 369.35 490.12 417.41 564.62 417.41 564.62 382.69 628.95 382.69 628.95 393.38 723.75 393.38 723.75 366.68 889.66 366.68 889.66 350.66 1096.2 350.66 1096.2 409.4 1126.67 409.4 1126.67 377.36 1292.58 377.36 1292.58 448.5 1356.91 448.5 1356.91 331.97 1424.63 331.97 1424.63 388.04 1475.42 388.04 1475.42 347.99 1593.93 347.99 1593.93 428.09 1675.19 428.09 1675.19 393.38 1685.35 393.38 1685.35 331.97"/><path class="cls-5" d="M1677.82,253.61h16.74V253Q1686.19,253.2,1677.82,253.61Z"/><rect class="cls-3" x="1522.83" y="176.2" width="54.17" height="34.7"/><rect class="cls-3" x="984.47" y="176.2" width="54.17" height="34.7"/><rect class="cls-3" x="700.05" y="176.2" width="54.17" height="34.7"/><rect class="cls-3" x="481.66" y="311.01" width="44.86" height="34.71"/><rect class="cls-3" x="582.39" y="338.15" width="44.87" height="34.71"/><rect class="cls-3" x="856.08" y="290.1" width="44.87" height="34.7"/><rect class="cls-3" x="811.78" y="341.27" width="44.87" height="34.71"/><rect class="cls-3" x="979.39" y="301.22" width="44.87" height="34.7"/><rect class="cls-3" x="1114.82" y="311.01" width="44.86" height="34.71"/><rect class="cls-3" x="1191" y="328.37" width="44.86" height="34.71"/><rect class="cls-3" x="1296.82" y="283.87" width="44.86" height="34.7"/><rect class="cls-3" x="1413.21" y="295.89" width="44.87" height="34.7"/><rect class="cls-3" x="1593.79" y="283.87" width="44.87" height="34.7"/><rect class="cls-3" x="1628.21" y="345.73" width="44.87" height="34.7"/><rect class="cls-3" x="1522.83" y="328.37" width="44.87" height="34.71"/><rect class="cls-3" x="1328.63" y="384.88" width="44.86" height="34.7"/><rect class="cls-3" x="391.93" y="345.73" width="44.87" height="34.7"/><rect class="cls-3" x="236.18" y="348.22" width="44.87" height="34.71"/><rect class="cls-3" x="157.17" y="276.31" width="44.87" height="34.7"/><rect class="cls-3" x="39.8" y="325.7" width="44.86" height="34.71"/><rect class="cls-3" x="466.42" y="176.2" width="54.17" height="34.7"/><rect class="cls-3" x="1146.99" y="191.81" width="54.17" height="34.7"/><rect class="cls-3" x="1323.98" y="190.88" width="54.17" height="34.7"/><rect class="cls-3" x="205.71" y="190.88" width="54.17" height="34.7"/><rect class="cls-2" x="412.25" y="193.55" width="54.17" height="34.7"/><rect class="cls-2" x="573.08" y="191.81" width="54.17" height="34.7"/><rect class="cls-2" x="784.7" y="200.89" width="54.17" height="34.7"/><rect class="cls-2" x="894.74" y="191.81" width="54.17" height="34.7"/><rect class="cls-2" x="1092.82" y="200.89" width="54.17" height="34.7"/><rect class="cls-2" x="1242.64" y="200.89" width="54.17" height="34.7"/><rect class="cls-2" x="1408.55" y="200.89" width="54.17" height="34.7"/><rect class="cls-2" x="1608.32" y="180.2" width="54.17" height="34.7"/><rect class="cls-2" x="298.82" y="200.89" width="54.17" height="34.7"/><rect class="cls-2" x="87.2" y="190.88" width="54.17" height="34.7"/></g></g></svg>